<?xml version="1.0" encoding="UTF-8" standalone="no"?>
<!DOCTYPE svg PUBLIC "-//W3C//DTD SVG 1.1//EN"
 "http://www.w3.org/Graphics/SVG/1.1/DTD/svg11.dtd">
<!-- Generated by graphviz version 2.50.0 (0)
 -->
<!-- Pages: 1 -->
<svg width="538pt" height="260pt"
 viewBox="0.00 0.00 538.00 260.00" xmlns="http://www.w3.org/2000/svg" xmlns:xlink="http://www.w3.org/1999/xlink">
<g id="graph0" class="graph" transform="scale(1 1) rotate(0) translate(4 256)">
<polygon fill="white" stroke="transparent" points="-4,4 -4,-256 534,-256 534,4 -4,4"/>
<!-- &#45;5183183730796289297 -->
<g id="node1" class="node">
<title>&#45;5183183730796289297</title>
<polygon fill="none" stroke="black" points="343.5,-252 184.5,-252 184.5,-216 343.5,-216 343.5,-252"/>
<text text-anchor="middle" x="264" y="-229" font-family="Helvetica,sans-Serif" font-size="20.00">Sub(Sum, Sum)</text>
</g>
<!-- &#45;1059326997914595854 -->
<g id="node2" class="node">
<title>&#45;1059326997914595854</title>
<polygon fill="none" stroke="black" points="255.5,-180 94.5,-180 94.5,-144 255.5,-144 255.5,-180"/>
<text text-anchor="middle" x="175" y="-157" font-family="Helvetica,sans-Serif" font-size="20.00">Sum(Projection)</text>
</g>
<!-- &#45;1059326997914595854&#45;&gt;&#45;5183183730796289297 -->
<g id="edge2" class="edge">
<title>&#45;1059326997914595854&#45;&gt;&#45;5183183730796289297</title>
<path fill="none" stroke="black" d="M197,-180.3C208.21,-189.12 222,-199.97 234.15,-209.53"/>
<polygon fill="black" stroke="black" points="232.23,-212.46 242.25,-215.9 236.56,-206.96 232.23,-212.46"/>
</g>
<!-- 8259428536523692082 -->
<g id="node3" class="node">
<title>8259428536523692082</title>
<polygon fill="none" stroke="black" points="256,-108 0,-108 0,-72 256,-72 256,-108"/>
<text text-anchor="middle" x="128" y="-85" font-family="Helvetica,sans-Serif" font-size="20.00">Projection(FromPandas, b)</text>
</g>
<!-- 8259428536523692082&#45;&gt;&#45;1059326997914595854 -->
<g id="edge3" class="edge">
<title>8259428536523692082&#45;&gt;&#45;1059326997914595854</title>
<path fill="none" stroke="black" d="M139.62,-108.3C145.14,-116.53 151.85,-126.52 157.93,-135.58"/>
<polygon fill="black" stroke="black" points="155.04,-137.54 163.52,-143.9 160.85,-133.64 155.04,-137.54"/>
</g>
<!-- &#45;1644339269433526615 -->
<g id="node4" class="node">
<title>&#45;1644339269433526615</title>
<polygon fill="none" stroke="black" points="330.5,-36 199.5,-36 199.5,0 330.5,0 330.5,-36"/>
<text text-anchor="middle" x="265" y="-13" font-family="Helvetica,sans-Serif" font-size="20.00">FromPandas</text>
</g>
<!-- &#45;1644339269433526615&#45;&gt;8259428536523692082 -->
<g id="edge4" class="edge">
<title>&#45;1644339269433526615&#45;&gt;8259428536523692082</title>
<path fill="none" stroke="black" d="M231.49,-36.12C213.16,-45.49 190.26,-57.19 170.67,-67.2"/>
<polygon fill="black" stroke="black" points="168.96,-64.14 161.64,-71.81 172.14,-70.38 168.96,-64.14"/>
</g>
<!-- 3621453074861340369 -->
<g id="node6" class="node">
<title>3621453074861340369</title>
<polygon fill="none" stroke="black" points="530,-108 274,-108 274,-72 530,-72 530,-108"/>
<text text-anchor="middle" x="402" y="-85" font-family="Helvetica,sans-Serif" font-size="20.00">Projection(FromPandas, a)</text>
</g>
<!-- &#45;1644339269433526615&#45;&gt;3621453074861340369 -->
<g id="edge6" class="edge">
<title>&#45;1644339269433526615&#45;&gt;3621453074861340369</title>
<path fill="none" stroke="black" d="M298.51,-36.12C316.84,-45.49 339.74,-57.19 359.33,-67.2"/>
<polygon fill="black" stroke="black" points="357.86,-70.38 368.36,-71.81 361.04,-64.14 357.86,-70.38"/>
</g>
<!-- &#45;3140547557183033855 -->
<g id="node5" class="node">
<title>&#45;3140547557183033855</title>
<polygon fill="none" stroke="black" points="458.5,-180 297.5,-180 297.5,-144 458.5,-144 458.5,-180"/>
<text text-anchor="middle" x="378" y="-157" font-family="Helvetica,sans-Serif" font-size="20.00">Sum(Projection)</text>
</g>
<!-- &#45;3140547557183033855&#45;&gt;&#45;5183183730796289297 -->
<g id="edge1" class="edge">
<title>&#45;3140547557183033855&#45;&gt;&#45;5183183730796289297</title>
<path fill="none" stroke="black" d="M350.11,-180.12C335.21,-189.28 316.67,-200.66 300.62,-210.52"/>
<polygon fill="black" stroke="black" points="298.69,-207.59 291.99,-215.81 302.35,-213.56 298.69,-207.59"/>
</g>
<!-- 3621453074861340369&#45;&gt;&#45;3140547557183033855 -->
<g id="edge5" class="edge">
<title>3621453074861340369&#45;&gt;&#45;3140547557183033855</title>
<path fill="none" stroke="black" d="M396.07,-108.3C393.39,-116.1 390.17,-125.49 387.2,-134.17"/>
<polygon fill="black" stroke="black" points="383.8,-133.3 383.86,-143.9 390.42,-135.57 383.8,-133.3"/>
</g>
</g>
</svg>
